Coordinates
version=1
nRows=32
nColumns=22
inDegrees=yes

Units are S.I. units (second, meters, Newtons, ...)
If the header above contains a line with 'inDegrees', this indicates whether rotational values are in degrees (yes) or radians (no).

endheader
time	pelvis_tilt	pelvis_list	pelvis_rotation	pelvis_tx	pelvis_ty	pelvis_tz	hip_flexion_r	hip_adduction_r	hip_rotation_r	knee_angle_r	ankle_angle_r	subtalar_angle_r	hip_flexion_l	hip_adduction_l	hip_rotation_l	knee_angle_l	ankle_angle_l	subtalar_angle_l	lumbar_extension	lumbar_bending	lumbar_rotation
      1.26000000	     -2.43427125	     -4.63455436	     -1.87247327	     -1.08453691	      0.95608315	      0.02257445	      8.71130932	      3.72104208	     -4.49827820	    -17.83314916	     11.52764225	     -0.63666294	     11.32866700	     -5.74554774	     -5.70389470	    -25.70092046	     15.30259936	     -4.92648195	     -5.50666953	      2.64544322	     -0.43694544
      1.27000000	     -2.46493584	     -4.64838164	     -1.86938557	     -1.08379077	      0.95602186	      0.02174890	      8.66658710	      3.68241996	     -4.45971238	    -17.78671051	     11.55220626	     -0.60816674	     11.29123439	     -5.69977499	     -5.70095583	    -25.68398565	     15.43563099	     -4.96859352	     -5.48380943	      2.67076658	     -0.39090022
      1.28000000	     -2.49187630	     -4.65933143	     -1.87786632	     -1.08300643	      0.95596012	      0.02091195	      8.62532526	      3.63943645	     -4.42573105	    -17.75554034	     11.57974050	     -0.56877857	     11.23897593	     -5.65178173	     -5.71369547	    -25.65574008	     15.56261468	     -5.01330664	     -5.46568612	      2.68766831	     -0.32903431
      1.29000000	     -2.51714138	     -4.65858788	     -1.89222076	     -1.08220204	      0.95589410	      0.02003425	      8.59718423	      3.58019039	     -4.39090846	    -17.75069247	     11.61238578	     -0.51745958	     11.17728643	     -5.58707607	     -5.72550144	    -25.61536410	     15.67245221	     -5.05901915	     -5.45295456	      2.69218285	     -0.26358102
      1.30000000	     -2.55470458	     -4.66105422	     -1.89813244	     -1.08135708	      0.95580552	      0.01910814	      8.58344778	      3.52037526	     -4.38331984	    -17.74869274	     11.63569885	     -0.49027252	     11.12859032	     -5.51991555	     -5.71512254	    -25.57425544	     15.74635676	     -5.08856083	     -5.42379393	      2.69818737	     -0.19434400
      1.31000000	     -2.57891398	     -4.64494627	     -1.90884185	     -1.08052739	      0.95571086	      0.01813417	      8.60270229	      3.43754102	     -4.34728491	    -17.83107608	     11.67190362	     -0.45063693	     11.05515046	     -5.42335965	     -5.68963594	    -25.51259885	     15.84155566	     -5.13301843	     -5.42099804	      2.68445355	     -0.15177314
      1.32000000	     -2.59552644	     -4.57719500	     -1.92759184	     -1.07965688	      0.95560973	      0.01710110	      8.63637007	      3.29042165	     -4.31801703	    -17.95331535	     11.79273381	     -0.29725984	     10.96671174	     -5.26965215	     -5.70185542	    -25.44020629	     15.83629042	     -5.22706672	     -5.42580828	      2.61080632	     -0.10388061
      1.33000000	     -2.61816226	     -4.53777388	     -1.92469890	     -1.07878338	      0.95547019	      0.01598885	      8.69810542	      3.16988710	     -4.30114201	    -18.11174572	     11.83660848	     -0.23891997	     10.89603842	     -5.13103459	     -5.63807103	    -25.38518572	     15.91439498	     -5.28631062	     -5.42989444	      2.57280598	     -0.05698742
      1.34000000	     -2.63394841	     -4.46668486	     -1.92078323	     -1.07790433	      0.95530526	      0.01481501	      8.81337448	      3.00807907	     -4.27602806	    -18.37969811	     11.93384786	     -0.17021043	     10.81388221	     -4.95374779	     -5.57951058	    -25.31946769	     15.93865167	     -5.34632643	     -5.44800360	      2.50316197	     -0.03858782
      1.35000000	     -2.66240009	     -4.36293145	     -1.91144820	     -1.07697561	      0.95508576	      0.01357916	      8.99290906	      2.80569796	     -4.23403936	    -18.74147183	     12.08288059	     -0.04763655	     10.73212227	     -4.73927417	     -5.54221566	    -25.22896439	     15.91569133	     -5.43320660	     -5.44470495	      2.39772526	     -0.06689854
      1.36000000	     -2.68573980	     -4.24759788	     -1.89743899	     -1.07610429	      0.95481697	      0.01226383	      9.24586457	      2.58398301	     -4.16308509	    -19.23491500	     12.23386399	      0.14135845	     10.67228094	     -4.50431590	     -5.47467778	    -25.18303188	     15.87839467	     -5.54505558	     -5.46620615	      2.28507440	     -0.08161657
      1.37000000	     -2.68209571	     -4.10623078	     -1.87821852	     -1.07514916	      0.95454438	      0.01088027	      9.53739751	      2.32553569	     -4.09558816	    -19.85472693	     12.37654366	      0.23008107	     10.55151045	     -4.23366119	     -5.40803098	    -25.08696792	     15.91981180	     -5.59970673	     -5.51263491	      2.14644125	     -0.12778283
      1.38000000	     -2.67777756	     -3.93310444	     -1.85728265	     -1.07422062	      0.95421246	      0.00945343	      9.92713350	      2.02960246	     -3.99223001	    -20.64584041	     12.54216712	      0.33965204	     10.44155764	     -3.92929121	     -5.34973542	    -25.00700571	     15.92565073	     -5.64664662	     -5.57094743	      1.97224641	     -0.18435491
      1.39000000	     -2.72426949	     -3.75049441	     -1.84338293	     -1.07336856	      0.95373437	      0.00801109	     10.48794853	      1.72412632	     -3.84299710	    -21.63442990	     12.70991356	      0.63015826	     10.42000786	     -3.62195084	     -5.30207073	    -24.98008041	     15.89998443	     -5.73173280	     -5.58496515	      1.78967784	     -0.24231754
      1.40000000	     -2.68666031	     -3.52726173	     -1.82297393	     -1.07245651	      0.95334048	      0.00653011	     11.04153359	      1.37006553	     -3.68706117	    -22.77399024	     12.87176289	      0.72801466	     10.28362194	     -3.26736367	     -5.27027748	    -24.91338719	     15.89930568	     -5.73095157	     -5.70062362	      1.56032384	     -0.33662815
      1.41000000	     -2.66475454	     -3.29483324	     -1.81588375	     -1.07157125	      0.95287043	      0.00508332	     11.72837186	      1.00890165	     -3.51886976	    -24.11236339	     12.98136135	      0.85209512	     10.17213944	     -2.91340603	     -5.26931016	    -24.86023203	     15.91619423	     -5.72847045	     -5.80827971	      1.31715427	     -0.43082575
      1.42000000	     -2.63574063	     -3.05784736	     -1.81478562	     -1.07069461	      0.95237064	      0.00367039	     12.51419312	      0.64411945	     -3.35508145	    -25.63375421	     13.02829199	      0.98291471	     10.05959781	     -2.56383615	     -5.29634169	    -24.81769689	     15.94492025	     -5.71675422	     -5.93459373	      1.06648331	     -0.53692306
      1.43000000	     -2.56939607	     -2.82021687	     -1.81817324	     -1.06979985	      0.95190606	      0.00230113	     13.35433080	      0.27893933	     -3.21455806	    -27.31647577	     12.99208905	      1.07333620	      9.90616575	     -2.21962309	     -5.34263233	    -24.77595751	     15.98998266	     -5.69767767	     -6.11375222	      0.81112185	     -0.66011018
      1.44000000	     -2.48567706	     -2.59480035	     -1.82632352	     -1.06888506	      0.95145240	      0.00099571	     14.26619833	     -0.07106319	     -3.10673567	    -29.14890410	     12.86309788	      1.13985785	      9.74108642	     -1.89698912	     -5.41051535	    -24.74947443	     16.04377472	     -5.67796743	     -6.32082233	      0.56613410	     -0.79678018
      1.45000000	     -2.37004492	     -2.38825205	     -1.83170273	     -1.06792019	      0.95104954	     -0.00025830	     15.21540437	     -0.40253335	     -3.05009608	    -31.09444193	     12.63787178	      1.16436363	      9.54348072	     -1.59849835	     -5.48530332	    -24.73140985	     16.10661228	     -5.66251157	     -6.57075346	      0.34209046	     -0.95400993
      1.46000000	     -2.22024857	     -2.20535468	     -1.83097380	     -1.06687554	      0.95071580	     -0.00146044	     16.18069049	     -0.71420221	     -3.06302220	    -33.11364991	     12.32080726	      1.13693372	      9.30671878	     -1.32696447	     -5.55864572	    -24.71693404	     16.17735484	     -5.65621171	     -6.86288837	      0.14396440	     -1.13525274
      1.47000000	     -2.03041076	     -2.05153346	     -1.81750057	     -1.06571120	      0.95047974	     -0.00261196	     17.12760752	     -1.00461319	     -3.16176028	    -35.14810862	     11.92350111	      1.05546867	      9.01404819	     -1.08519546	     -5.61628764	    -24.69133352	     16.25529755	     -5.66169759	     -7.19885372	     -0.02187379	     -1.34265837
      1.48000000	     -1.81847023	     -1.92821289	     -1.78953224	     -1.06442194	      0.95032010	     -0.00371792	     18.05512097	     -1.27685811	     -3.35801117	    -37.14577115	     11.48516316	      0.91838164	      8.68795284	     -0.87625689	     -5.66404636	    -24.66095644	     16.33369005	     -5.68173626	     -7.55603321	     -0.15024271	     -1.57815335
      1.49000000	     -1.58408021	     -1.83633951	     -1.74858873	     -1.06298097	      0.95026059	     -0.00478031	     18.93287149	     -1.53392882	     -3.65872223	    -39.03660444	     11.02775906	      0.74780799	      8.31419133	     -0.69735339	     -5.68688398	    -24.60558719	     16.41773871	     -5.71265617	     -7.93011553	     -0.23849577	     -1.83652993
      1.50000000	     -1.35093447	     -1.77749760	     -1.69360446	     -1.06140729	      0.95026735	     -0.00579524	     19.76783880	     -1.77557358	     -4.06748776	    -40.76831182	     10.61834842	      0.53317785	      7.92530359	     -0.55595077	     -5.70041925	    -24.53521880	     16.49626595	     -5.75490764	     -8.29593835	     -0.28492064	     -2.11612867
      1.51000000	     -1.13821405	     -1.75200440	     -1.62392572	     -1.05969889	      0.95032501	     -0.00675542	     20.55486692	     -2.00164485	     -4.59026602	    -42.27653506	     10.29928761	      0.22510422	      7.54175145	     -0.45570369	     -5.71214312	    -24.44901566	     16.56640011	     -5.81647767	     -8.62949563	     -0.28919878	     -2.42371995
      1.52000000	     -0.92089293	     -1.76823870	     -1.57053610	     -1.05786696	      0.95049234	     -0.00761942	     21.26007688	     -2.18663903	     -5.17237797	    -43.52324787	     10.04718242	      0.06066861	      7.11731366	     -0.39743777	     -5.68361238	    -24.32322866	     16.65710707	     -5.84705758	     -8.96329732	     -0.24677859	     -2.68618711
      1.53000000	     -0.74643582	     -1.81952233	     -1.49637415	     -1.05591737	      0.95067682	     -0.00842272	     21.91584927	     -2.34953882	     -5.86621531	    -44.47558799	      9.95077379	     -0.19635246	      6.73311799	     -0.38982174	     -5.67289128	    -24.19639203	     16.72060725	     -5.89021387	     -9.23995426	     -0.16121156	     -2.99074115
      1.54000000	     -0.59940433	     -1.89329591	     -1.45011347	     -1.05386922	      0.95090682	     -0.00911425	     22.52329217	     -2.48018148	     -6.59448941	    -45.13815785	      9.92369795	     -0.31426500	      6.34619485	     -0.40807315	     -5.64907066	    -24.03229094	     16.80958876	     -5.91118190	     -9.48058851	     -0.05314807	     -3.24174511
      1.55000000	     -0.48894832	     -1.99853125	     -1.40620617	     -1.05170936	      0.95114998	     -0.00970656	     23.07734961	     -2.57316843	     -7.38834550	    -45.49551666	      9.99909232	     -0.41501719	      5.98728274	     -0.47099453	     -5.63760314	    -23.86230642	     16.88209533	     -5.92837348	     -9.67346580	      0.08678409	     -3.48872653
      1.56000000	     -0.40935655	     -2.12253773	     -1.38223793	     -1.04943753	      0.95139724	     -0.01019180	     23.58543889	     -2.63031323	     -8.21304999	    -45.56749773	     10.13021885	     -0.48602118	      5.64384514	     -0.56079310	     -5.63874732	    -23.67906185	     16.95219599	     -5.94212814	     -9.82553877	      0.24504137	     -3.71102882
      1.57000000	     -0.35790738	     -2.24795314	     -1.39005633	     -1.04706020	      0.95161899	     -0.01053475	     24.06411656	     -2.65825935	     -9.03831549	    -45.39197474	     10.30663442	     -0.51961952	      5.32073734	     -0.66766800	     -5.70312004	    -23.49554321	     17.02473124	     -5.95397555	     -9.94215133	      0.39361453	     -3.89638794
